<?xml version="1.0" encoding="UTF-8" standalone="no"?>
<!-- Generator: Adobe Illustrator 16.0.0, SVG Export Plug-In . SVG Version: 6.00 Build 0)  -->

<svg
   xmlns:dc="http://purl.org/dc/elements/1.1/"
   xmlns:cc="http://creativecommons.org/ns#"
   xmlns:rdf="http://www.w3.org/1999/02/22-rdf-syntax-ns#"
   xmlns:svg="http://www.w3.org/2000/svg"
   xmlns="http://www.w3.org/2000/svg"
   xmlns:sodipodi="http://sodipodi.sourceforge.net/DTD/sodipodi-0.dtd"
   xmlns:inkscape="http://www.inkscape.org/namespaces/inkscape"
   version="1.1"
   x="0px"
   y="0px"
   width="960"
   height="140"
   viewBox="0 0 960 140"
   enable-background="new 0 0 960 560"
   xml:space="preserve"
   id="svg2"
   inkscape:version="0.91 r13725"
   sodipodi:docname="top_hill.svg"><metadata
     id="metadata79"><rdf:RDF><cc:Work
         rdf:about=""><dc:format>image/svg+xml</dc:format><dc:type
           rdf:resource="http://purl.org/dc/dcmitype/StillImage" /><dc:title></dc:title></cc:Work></rdf:RDF></metadata><defs
     id="defs77" /><sodipodi:namedview
     pagecolor="#ffffff"
     bordercolor="#666666"
     borderopacity="1"
     objecttolerance="10"
     gridtolerance="10"
     guidetolerance="10"
     inkscape:pageopacity="0"
     inkscape:pageshadow="2"
     inkscape:window-width="1678"
     inkscape:window-height="1029"
     id="namedview75"
     showgrid="false"
     inkscape:zoom="1"
     inkscape:cx="528.32665"
     inkscape:cy="34.444606"
     inkscape:window-x="0"
     inkscape:window-y="19"
     inkscape:window-maximized="0"
     inkscape:current-layer="Layer_2" /><g
     id="Layer_1"
     display="none"
     style="display:none"
     transform="translate(0,-420)"><text
       transform="translate(339.2695,266.5078)"
       display="inline"
       id="text5"
       style="display:inline"><tspan
         x="0"
         y="0"
         font-size="72.3414"
         letter-spacing="-1"
         id="tspan7"
         style="font-size:72.34140015px;font-family:Helvetica-Bold;letter-spacing:-1">DRONE</tspan><tspan
         x="-18.634001"
         y="74.809998"
         font-size="72.3414"
         letter-spacing="-1"
         id="tspan9"
         style="font-size:72.34140015px;font-family:Helvetica-Bold;letter-spacing:-1">M</tspan><tspan
         x="40.18"
         y="74.809998"
         font-size="72.3414"
         letter-spacing="-2"
         id="tspan11"
         style="font-size:72.34140015px;font-family:Helvetica-Bold;letter-spacing:-2">O</tspan><tspan
         x="93.556"
         y="74.809998"
         font-size="72.3414"
         id="tspan13"
         style="font-size:72.34140015px;font-family:Helvetica-Bold">T</tspan><tspan
         x="137.745"
         y="74.809998"
         font-size="72.3414"
         letter-spacing="-1"
         id="tspan15"
         style="font-size:72.34140015px;font-family:Helvetica-Bold;letter-spacing:-1">E</tspan><tspan
         x="184.549"
         y="74.809998"
         font-size="72.3414"
         letter-spacing="-2"
         id="tspan17"
         style="font-size:72.34140015px;font-family:Helvetica-Bold;letter-spacing:-2">L</tspan><tspan
         x="225.84399"
         y="74.809998"
         font-size="72.3414"
         letter-spacing="-1"
         id="tspan19"
         style="font-size:72.34140015px;font-family:Helvetica-Bold;letter-spacing:-1">S</tspan></text>
</g><g
     id="Layer_2"
     transform="translate(0,-420)"><path
       style="opacity:1"
       d="m 960,559.94247 -329,-135 -631,135 0,0.072 960,0 z"
       id="polygon22"
       inkscape:connector-curvature="0"
       sodipodi:nodetypes="cccccc" /></g><g
     id="Layer_2_copy"
     display="none"
     style="display:none"
     transform="translate(0,-420)"><linearGradient
       id="SVGID_1_"
       gradientUnits="userSpaceOnUse"
       x1="457.49799"
       y1="167.98579"
       x2="526.49268"
       y2="511.42639"><stop
         offset="0"
         style="stop-color:#FCEE21;stop-opacity:0"
         id="stop26" /><stop
         offset="1"
         style="stop-color:#FCEE21"
         id="stop28" /></linearGradient><polygon
       display="inline"
       points="0,0 960,0 960,560 631,425 0,560 "
       id="polygon30"
       style="display:inline;fill:url(#SVGID_1_)" /><polygon
       display="inline"
       points="0,560 960,560 960,560 631,425 0,560 "
       id="polygon32"
       style="display:inline" /></g><g
     id="Layer_2_copy_2"
     display="none"
     style="display:none"
     transform="translate(0,-420)"><linearGradient
       id="SVGID_2_"
       gradientUnits="userSpaceOnUse"
       x1="457.4971"
       y1="167.9873"
       x2="526.49182"
       y2="511.42789"
       gradientTransform="matrix(-1,0,0,-1,960,560)"><stop
         offset="0"
         style="stop-color:#FCEE21;stop-opacity:0"
         id="stop36" /><stop
         offset="1"
         style="stop-color:#FCEE21"
         id="stop38" /></linearGradient><polygon
       display="inline"
       points="960,560 0,560 0,0 329,135 960,0 "
       id="polygon40"
       style="display:inline;fill:url(#SVGID_2_)" /><polygon
       display="inline"
       points="960,0 0,0 0,0 329,135 960,0 "
       id="polygon42"
       style="display:inline" /></g><g
     id="Layer_3"
     display="none"
     style="display:none"
     transform="translate(0,-420)"><polygon
       display="inline"
       points="960,0 0,0 0,251 329,386 960,251 "
       id="polygon45"
       style="display:inline" /></g><g
     id="Layer_4"
     display="none"
     style="display:none"
     transform="translate(0,-420)"><polygon
       display="inline"
       points="199.536,333.221 264.507,319.312 264.669,309.052 198.625,281.779 134,295.648 134,305.976 "
       id="polygon48"
       style="display:inline" /><polygon
       display="inline"
       points="702.227,228.333 732.155,221.935 732.211,217.214 701.808,204.667 672,211.048 672,215.799 "
       id="polygon50"
       style="display:inline" /><g
       id="Layer_6"
       display="inline"
       style="display:inline"><g
         id="g53"><g
           id="g55"><path
             stroke-miterlimit="10"
             d="m 234.5,301.5 c 0.832,-0.024 1.664,-0.059 2.494,-0.102"
             id="path57"
             inkscape:connector-curvature="0"
             style="fill:none;stroke:#000000;stroke-width:2;stroke-miterlimit:10" /><path
             stroke-miterlimit="10"
             d="m 241.973,301.03 c 19.39,-1.824 38.375,-7.966 57.884,-9.096 16.005,-0.64 32.679,0 48.684,0 46.017,0.637 92.033,1.274 136.049,-12.758 35.347,-11.48 67.357,-31.251 102.704,-42.095 25.343,-7.014 48.686,-7.652 74.027,-10.841 8.369,-1.067 17.671,-1.688 25.954,-4.103"
             id="path59"
             inkscape:connector-curvature="0"
             style="fill:none;stroke:#000000;stroke-width:2;stroke-miterlimit:10;stroke-dasharray:4.9932, 4.9932" /><path
             stroke-miterlimit="10"
             d="m 689.662,221.38 c 0.791,-0.273 1.571,-0.566 2.338,-0.88"
             id="path61"
             inkscape:connector-curvature="0"
             style="fill:none;stroke:#000000;stroke-width:2;stroke-miterlimit:10" /></g></g></g></g><g
     id="Layer_7"
     display="none"
     style="display:none"
     transform="translate(0,-420)"><polygon
       display="inline"
       points="189.536,235.221 254.507,221.312 254.669,211.052 188.625,183.779 124,197.648 124,207.976 "
       id="polygon64"
       style="display:inline" /><polygon
       display="inline"
       points="796.936,418.878 936.74,388.933 937.128,366.841 794.974,308.122 656,337.983 656,360.218 "
       id="polygon66"
       style="display:inline" /><polygon
       display="inline"
       points="692.227,130.333 722.155,123.935 722.211,119.214 691.808,106.667 662,113.048 662,117.799 "
       id="polygon68"
       style="display:inline" /><path
       display="inline"
       stroke-miterlimit="10"
       d="m 761.666,381 c -18.666,4 -34,10 -51.333,16.666 -22,8.667 -40.667,22.667 -62,32 -28.667,13.334 -65.333,13.334 -96,8.667 -38,-4.667 -68,-27.333 -101.333,-44 -34.667,-18.667 -82,-42 -122,-36 C 297,363 268.333,383 238.333,393.666 207,404.333 175.666,406.333 146.333,390.333 123,377.666 85,355 101.667,323.666 c 5.333,-10 27.333,-25.333 24,-38.666 -4,-13.333 -26,-8 -31.333,-20.667 C 82.333,237 159,219 173,217 l 51.5,-13.5 c 31.328,-1.077 61.968,-8.977 93.296,-10.049 32.249,-1.104 64.41,2.051 96.632,-0.937 29.978,-2.78 59.036,-9.988 86.864,-21.462 27.408,-11.301 53.399,-27.079 82.562,-33.618 32.378,-7.26 66.901,-2.222 98.146,-14.934"
       id="path70"
       inkscape:connector-curvature="0"
       style="display:inline;fill:none;stroke:#000000;stroke-width:2;stroke-miterlimit:10;stroke-dasharray:5, 5" /></g><g
     id="Layer_5"
     display="none"
     style="display:none"
     transform="translate(0,-420)"><polygon
       display="inline"
       points="918.46,524.02 809.02,479 701.086,501.98 810.526,547 "
       id="polygon73"
       style="display:inline" /></g></svg>